PathFileType  4	(X/Y/Z) C:\Users\antoi\Documents\MyRepositories\mobilecap\ResultsAnalysis
DataRate	CameraRate	NumFrames	NumMarkers	Units	OrigDataRate	OrigDataStartFrame	OrigNumFrames
100.0	100.0	4	51	mm	100.0	65	256
Frame#	Time	r_knee			r_shank_antsup			r_ankle			r_calc			r_5meta			r_toe			L_knee			L_shank_antsup			L_ankle			L_calc			L_5meta			L_toe			r_sh2			r_sh3			r_sh4			L_sh2			L_sh3			r_thigh1			r_thigh2			r_thigh3			r_thigh4			r_thigh5			L_thigh1			L_thigh2			L_thigh3			L_thigh4			r.ASIS			r.PSIS			L.ASIS			L.PSIS			C7			R_Shoulder			L_Shoulder			R_Sternum			L_Sternum			R_humerus			R_elbow_med			R_elbow_lat			R_forearm			R_wrist_radius			R_wrist_ulna			L_humerus			L_elbow_med			L_elbow_lat			L_forearm			L_wrist_radius			L_wrist_ulna			R_HJC			L_HJC			R_HJC_reg			L_HJC_reg			
		X1	Y1	Z1	X2	Y2	Z2	X3	Y3	Z3	X4	Y4	Z4	X5	Y5	Z5	X6	Y6	Z6	X7	Y7	Z7	X8	Y8	Z8	X9	Y9	Z9	X10	Y10	Z10	X11	Y11	Z11	X12	Y12	Z12	X13	Y13	Z13	X14	Y14	Z14	X15	Y15	Z15	X16	Y16	Z16	X17	Y17	Z17	X18	Y18	Z18	X19	Y19	Z19	X20	Y20	Z20	X21	Y21	Z21	X22	Y22	Z22	X23	Y23	Z23	X24	Y24	Z24	X25	Y25	Z25	X26	Y26	Z26	X27	Y27	Z27	X28	Y28	Z28	X29	Y29	Z29	X30	Y30	Z30	X31	Y31	Z31	X32	Y32	Z32	X33	Y33	Z33	X34	Y34	Z34	X35	Y35	Z35	X36	Y36	Z36	X37	Y37	Z37	X38	Y38	Z38	X39	Y39	Z39	X40	Y40	Z40	X41	Y41	Z41	X42	Y42	Z42	X43	Y43	Z43	X44	Y44	Z44	X45	Y45	Z45	X46	Y46	Z46	X47	Y47	Z47	X48	Y48	Z48	X49	Y49	Z49	X50	Y50	Z50	X51	Y51	Z51	

65	0.64000000	-1044.83182	754.02408	-439.00181	-1041.62610	648.92388	-449.57304	-1263.68513	405.29123	-448.68071	-1333.89376	372.18448	-491.33530	-1149.10276	349.90502	-413.69880	-1118.54903	376.35873	-470.13110	-1030.22272	755.36470	-720.70681	-1023.35434	656.61437	-704.94778	-1253.11938	410.56999	-704.65901	-1332.39623	373.61025	-658.59261	-1155.80901	350.18240	-742.47154	-1108.37470	371.14444	-684.81529	-1104.36561	553.80659	-449.87944	-1094.22545	681.72057	-405.56587	-1162.69195	588.60405	-400.24298	-1082.09178	709.60273	-749.59130	-1152.09430	610.14906	-756.94770	-1060.94615	1032.54536	-402.02810	-1025.69069	927.91796	-424.31884	-1070.76868	883.34145	-397.03411	-1166.49738	994.42665	-393.25737	-1125.05393	887.09708	-411.88376	-1019.51589	1011.28692	-732.75112	-976.92149	880.39312	-705.75531	-1111.44301	974.73038	-779.27575	-1072.89513	850.59002	-747.97275	-1043.23572	1191.65153	-450.71566	-1228.41235	1281.59439	-536.71920	-1034.41894	1195.34954	-700.31955	-1221.56224	1282.04418	-633.89281	-1019.73029	1702.04861	-569.57722	-965.24120	1643.45773	-400.71081	-933.59914	1636.61086	-709.92817	-935.36697	1588.02918	-539.00219	-928.20170	1592.03366	-579.42476	-950.11668	1510.36931	-348.79506	-1055.61194	1319.22246	-371.03839	-1034.46124	1330.55649	-308.88403	-981.18221	1264.55844	-288.24236	-924.12336	1104.92885	-316.37345	-962.34020	1100.62250	-285.34941	-908.91858	1499.27441	-758.09872	-998.10192	1307.59231	-739.33539	-955.72924	1318.46047	-806.64817	-908.77573	1259.13292	-807.75814	-885.28119	1080.06263	-790.37566	-912.82058	1089.39321	-833.58383	-1146.87109	1131.75704	-480.24552	-1136.74558	1134.29202	-669.51990	-1135.16050	1140.65171	-492.59847	-1123.56924	1141.41305	-657.04923	
66	0.65000000	-1039.18459	751.11692	-439.16231	-1036.94027	646.09921	-449.67877	-1263.04799	406.14153	-448.92049	-1333.40035	373.20645	-491.50257	-1148.93818	349.87793	-413.53276	-1118.11514	376.04103	-469.94182	-1023.12874	753.20076	-721.64806	-1017.60112	654.19800	-706.02259	-1251.91757	412.13256	-704.67033	-1331.65131	376.03213	-657.78356	-1155.53301	350.06454	-742.57481	-1107.68560	370.67826	-685.04151	-1101.15150	552.01069	-449.89830	-1089.03744	679.72287	-405.78703	-1159.21784	588.04328	-400.38447	-1075.37743	708.21371	-750.48693	-1147.23810	609.94963	-757.48454	-1057.52488	1029.08664	-403.55029	-1022.53873	924.99316	-424.30646	-1066.09138	880.63507	-396.50337	-1163.14676	990.01878	-393.68888	-1120.58348	883.26021	-412.13490	-1016.58028	1009.42890	-734.22395	-971.57295	879.43016	-708.05856	-1108.36798	971.21156	-779.84770	-1067.26904	847.76374	-748.56586	-1041.27377	1187.25907	-450.86606	-1226.17639	1277.91107	-536.96467	-1032.96663	1190.39011	-701.06014	-1219.40615	1278.08663	-633.88468	-1014.24962	1696.80805	-569.49861	-959.55193	1637.91669	-401.01753	-928.58403	1630.54907	-709.48406	-929.58100	1582.70175	-538.19760	-923.44200	1586.06370	-579.53410	-941.71509	1505.79240	-348.82790	-1041.47452	1311.23902	-369.65851	-1020.23840	1323.69717	-307.65232	-964.45599	1259.43295	-287.68210	-901.41551	1102.00546	-315.96492	-939.17142	1096.49209	-285.15653	-900.52612	1494.90614	-757.64784	-982.11679	1299.89104	-738.61062	-939.66966	1312.47576	-805.45979	-889.50974	1255.21202	-805.15388	-857.74177	1077.51240	-784.52891	-884.78772	1085.20619	-829.09681	-1145.20491	1127.78421	-480.28010	-1135.50999	1129.89023	-669.58282	-1133.71451	1136.47781	-492.66989	-1122.20124	1136.77570	-657.49983	
67	0.66000000	-1033.27024	748.00675	-439.12905	-1032.17010	643.21404	-449.62287	-1262.46225	407.22922	-449.15465	-1332.91898	374.32734	-491.69055	-1148.72517	349.68445	-413.49061	-1117.68485	375.70483	-469.85851	-1016.56331	751.02280	-722.95097	-1011.92563	651.55547	-707.03783	-1250.61759	413.74377	-705.05084	-1330.82266	378.83134	-657.86381	-1155.21090	349.89047	-742.72367	-1106.95214	370.30336	-685.49416	-1097.93826	550.09276	-449.99070	-1083.87839	677.47729	-406.03407	-1155.49065	587.27047	-400.74737	-1068.89056	706.89750	-751.65236	-1142.51624	609.68020	-758.09279	-1053.97634	1025.59973	-405.03369	-1020.12398	922.08808	-423.47907	-1061.43177	877.96583	-395.43520	-1159.78310	985.49853	-393.89858	-1116.01109	879.30151	-412.26878	-1013.42650	1007.38731	-735.76486	-966.38955	878.06717	-710.36790	-1105.39028	967.63843	-780.27157	-1062.00466	844.78813	-748.92068	-1039.18813	1182.72068	-451.06700	-1224.12282	1274.08153	-537.12499	-1031.14811	1185.48338	-701.81058	-1217.13035	1273.96566	-633.71412	-1009.02060	1691.57509	-569.62735	-953.88430	1632.60649	-401.34522	-923.66133	1624.71288	-709.17824	-924.01981	1577.48215	-537.57828	-918.98745	1580.00409	-579.97649	-933.10166	1501.45668	-349.00751	-1026.49345	1303.57932	-368.16415	-1005.33100	1317.21704	-306.43231	-947.00698	1255.03800	-287.14093	-877.50333	1100.51568	-316.42234	-914.60508	1093.06033	-285.65247	-892.09576	1490.94681	-757.27153	-965.26580	1292.60168	-737.83352	-923.04144	1307.09117	-804.11859	-869.61623	1252.24084	-802.59213	-828.95132	1076.69070	-778.96922	-855.36398	1082.53943	-824.59016	-1143.36135	1123.59202	-480.38321	-1134.01402	1125.47651	-669.70601	-1132.27357	1132.21101	-493.08043	-1120.31611	1132.01273	-658.23123	
68	0.67000000	-1027.27142	745.09232	-439.11962	-1027.41357	640.18580	-449.78131	-1261.69443	408.19611	-449.30962	-1332.48323	375.52279	-492.00129	-1148.57963	349.43085	-413.51899	-1117.29544	375.37076	-469.89283	-1010.30338	748.71331	-724.46253	-1005.62806	649.04694	-707.50523	-1249.27218	415.26046	-705.26455	-1329.88920	381.66281	-657.92651	-1154.87334	349.64871	-742.82348	-1106.11401	370.05682	-686.04565	-1094.66341	548.03671	-450.38461	-1078.72271	675.12358	-406.36792	-1151.56647	585.91466	-401.33677	-1062.54981	705.31440	-752.39899	-1137.74761	609.39692	-758.71147	-1050.78041	1022.32236	-405.20932	-1016.89441	919.46677	-422.53801	-1056.83010	874.98410	-394.73258	-1156.34121	981.16630	-393.50578	-1111.35838	875.43584	-411.96507	-1010.13074	1004.97750	-737.34540	-961.24888	876.24178	-712.52174	-1102.45573	963.91218	-780.70754	-1057.08613	841.65047	-749.45404	-1036.89222	1178.10343	-451.41963	-1221.81791	1270.02137	-537.15924	-1029.01689	1180.61127	-702.52586	-1214.67055	1269.78113	-633.43124	-1003.94922	1686.42916	-569.90902	-948.13527	1627.43491	-401.65176	-918.84063	1619.12643	-708.89723	-919.22418	1572.00311	-537.62830	-914.44885	1574.21531	-580.38304	-924.30278	1497.53487	-349.39032	-1010.78446	1296.53703	-366.47492	-989.84617	1311.36551	-305.14484	-928.40165	1251.73915	-286.59353	-852.54706	1100.80837	-317.68555	-888.81032	1090.81282	-286.40413	-883.57415	1487.49199	-757.08063	-947.67932	1286.00535	-736.90461	-905.95680	1302.41572	-802.76562	-849.35977	1250.45775	-800.33133	-799.25013	1077.88056	-773.77126	-824.65114	1081.45568	-819.54962	-1141.19446	1119.22530	-480.53835	-1132.22021	1121.04773	-669.87942	-1130.42377	1127.72947	-493.62332	-1118.14851	1127.31768	-658.98462	
